<svg width="30" height="34" viewBox="0 0 30 34" fill="none" xmlns="http://www.w3.org/2000/svg">
<path d="M21.2956 0.687744H8.71935C3.25662 0.687744 0 4.28101 0 10.3084V24.1682C0 30.2122 3.25662 33.8054 8.71935 33.8054H21.2806C26.7433 33.8054 29.9999 30.2122 29.9999 24.1847V10.3084C30.015 4.28101 26.7583 0.687744 21.2956 0.687744ZM20.05 21.0551C20.4852 21.5353 20.4852 22.3301 20.05 22.8104C19.8249 23.0587 19.5397 23.1746 19.2546 23.1746C18.9695 23.1746 18.6843 23.0587 18.4592 22.8104L15.0075 19.0018L11.5558 22.8104C11.3306 23.0587 11.0455 23.1746 10.7604 23.1746C10.4752 23.1746 10.1901 23.0587 9.96497 22.8104C9.52975 22.3301 9.52975 21.5353 9.96497 21.0551L13.4167 17.2466L9.96497 13.438C9.52975 12.9578 9.52975 12.163 9.96497 11.6828C10.4002 11.2026 11.1205 11.2026 11.5558 11.6828L15.0075 15.4913L18.4592 11.6828C18.8944 11.2026 19.6148 11.2026 20.05 11.6828C20.4852 12.163 20.4852 12.9578 20.05 13.438L16.5983 17.2466L20.05 21.0551Z" fill="#292D32"/>
</svg>
