<svg width="50" height="50" viewBox="0 0 50 50" fill="none" xmlns="http://www.w3.org/2000/svg">
<path d="M23.268 3C24.0378 1.66667 25.9622 1.66667 26.732 3L44.9186 34.5C45.6884 35.8333 44.7261 37.5 43.1865 37.5H6.81347C5.27387 37.5 4.31162 35.8333 5.08142 34.5L23.268 3Z" fill="#007B8A"/>
<path d="M23.031 26.224L22.039 11.6H27.991L26.999 26.224H23.031ZM25.015 34.256C24.119 34.256 23.383 33.968 22.807 33.392C22.231 32.816 21.943 32.1333 21.943 31.344C21.943 30.5333 22.231 29.8613 22.807 29.328C23.383 28.7733 24.119 28.496 25.015 28.496C25.9323 28.496 26.6683 28.7733 27.223 29.328C27.799 29.8613 28.087 30.5333 28.087 31.344C28.087 32.1333 27.799 32.816 27.223 33.392C26.6683 33.968 25.9323 34.256 25.015 34.256Z" fill="white"/>
</svg>
