<svg width="35" height="36" viewBox="0 0 35 36" fill="none" xmlns="http://www.w3.org/2000/svg">
<path opacity="0.4" d="M24.8449 0.5H10.1726C3.79939 0.5 0 4.2975 0 10.6675V25.315C0 31.7025 3.79939 35.5 10.1726 35.5H24.8274C31.2005 35.5 34.9999 31.7025 34.9999 25.3325V10.6675C35.0174 4.2975 31.2181 0.5 24.8449 0.5Z" fill="#597759"/>
<path d="M26.2631 11.4375H8.75438C8.03652 11.4375 7.44122 10.8425 7.44122 10.125C7.44122 9.4075 8.03652 8.8125 8.75438 8.8125H26.2631C26.981 8.8125 27.5763 9.4075 27.5763 10.125C27.5763 10.8425 26.981 11.4375 26.2631 11.4375Z" fill="black"/>
<path d="M26.2631 19.3125H8.75438C8.03652 19.3125 7.44122 18.7175 7.44122 18C7.44122 17.2825 8.03652 16.6875 8.75438 16.6875H26.2631C26.981 16.6875 27.5763 17.2825 27.5763 18C27.5763 18.7175 26.981 19.3125 26.2631 19.3125Z" fill="black"/>
<path d="M26.2631 27.1875H8.75438C8.03652 27.1875 7.44122 26.5925 7.44122 25.875C7.44122 25.1575 8.03652 24.5625 8.75438 24.5625H26.2631C26.981 24.5625 27.5763 25.1575 27.5763 25.875C27.5763 26.5925 26.981 27.1875 26.2631 27.1875Z" fill="black"/>
</svg>
