<svg width="21" height="20" viewBox="0 0 21 20" fill="none" xmlns="http://www.w3.org/2000/svg">
<path d="M14.6507 0H6.26651C2.62469 0 0.453613 2.17 0.453613 5.81V14.18C0.453613 17.83 2.62469 20 6.26651 20H14.6407C18.2825 20 20.4536 17.83 20.4536 14.19V5.81C20.4636 2.17 18.2925 0 14.6507 0ZM14.4606 10.75H11.209V14C11.209 14.41 10.8688 14.75 10.4586 14.75C10.0484 14.75 9.70822 14.41 9.70822 14V10.75H6.4566C6.0464 10.75 5.70623 10.41 5.70623 10C5.70623 9.59 6.0464 9.25 6.4566 9.25H9.70822V6C9.70822 5.59 10.0484 5.25 10.4586 5.25C10.8688 5.25 11.209 5.59 11.209 6V9.25H14.4606C14.8708 9.25 15.211 9.59 15.211 10C15.211 10.41 14.8708 10.75 14.4606 10.75Z" fill="#292D32"/>
</svg>
